<svg height="512pt" viewBox="-57 0 512 512" width="512pt" xmlns="http://www.w3.org/2000/svg"><path d="m341.222656 389.175781h-284.09375c-11.792968-11.792969-18.40625-18.40625-30.195312-30.199219v-252.953124c20.675781-20.679688 32.269531-32.273438 52.953125-52.953126h238.578125c20.679687 20.679688 32.273437 32.273438 52.953125 52.953126v252.953124c-11.792969 11.792969-18.402344 18.40625-30.195313 30.199219zm0 0" fill="#96d1f3"/><path d="m324.359375 269.804688h-250.367187c-4.1875-4.1875-6.539063-6.535157-10.726563-10.726563v-108.25l10.726563-10.726563h250.367187c4.1875 4.1875 6.535156 6.539063 10.726563 10.726563v108.25c-4.191407 4.191406-6.539063 6.539063-10.726563 10.726563zm0 0" fill="#dcf0fb"/><path d="m136.410156 389.175781-79.910156 115.324219h-42.179688l79.910157-115.324219zm0 0" fill="#e5ebf5"/><path d="m261.941406 389.175781 79.910156 115.324219h42.175782l-79.910156-115.324219zm0 0" fill="#e5ebf5"/><g fill="#f8e868"><path d="m114.648438 330.601562c0 14.1875-11.503907 25.691407-25.691407 25.691407-14.191406 0-25.691406-11.503907-25.691406-25.691407s11.5-25.691406 25.691406-25.691406c14.1875 0 25.691407 11.503906 25.691407 25.691406zm0 0"/><path d="m335.085938 330.601562c0 14.1875-11.503907 25.691407-25.691407 25.691407s-25.691406-11.503907-25.691406-25.691407 11.503906-25.691406 25.691406-25.691406 25.691407 11.503906 25.691407 25.691406zm0 0"/><path d="m179.828125 30.285156c0 12.582032-10.203125 22.785156-22.785156 22.785156-12.585938 0-22.785157-10.203124-22.785157-22.785156 0-12.582031 10.199219-22.785156 22.785157-22.785156 12.582031 0 22.785156 10.203125 22.785156 22.785156zm0 0"/><path d="m264.09375 30.285156c0 12.582032-10.203125 22.785156-22.785156 22.785156-12.585938 0-22.785156-10.203124-22.785156-22.785156 0-12.582031 10.199218-22.785156 22.785156-22.785156 12.582031 0 22.785156 10.203125 22.785156 22.785156zm0 0"/></g><path d="m154.257812 30.285156c0-8.996094 5.214844-16.773437 12.785157-20.476562-3.019531-1.476563-6.414063-2.308594-10-2.308594-12.585938 0-22.785157 10.199219-22.785157 22.785156 0 12.582032 10.199219 22.785156 22.785157 22.785156 3.585937 0 6.980469-.832031 10-2.308593-7.570313-3.703125-12.785157-11.480469-12.785157-20.476563zm0 0" fill="#e0c938"/><path d="m238.523438 30.285156c0-8.996094 5.214843-16.773437 12.785156-20.476562-3.019532-1.476563-6.410156-2.308594-10-2.308594-12.582032 0-22.785156 10.199219-22.785156 22.785156 0 12.582032 10.199218 22.785156 22.785156 22.785156 3.589844 0 6.980468-.832031 10-2.308593-7.570313-3.703125-12.785156-11.480469-12.785156-20.476563zm0 0" fill="#e0c938"/><path d="m131.351562 83.070312h135.648438v27.03125h-135.648438zm0 0" fill="#cad8ea"/><path d="m56.933594 358.976562v-252.953124c20.675781-20.679688 32.269531-32.273438 52.953125-52.953126h-30c-20.679688 20.679688-32.273438 32.273438-52.953125 52.953126v252.953124c11.789062 11.792969 18.402344 18.40625 30.195312 30.199219h30c-11.792968-11.792969-18.402344-18.40625-30.195312-30.199219zm0 0" fill="#3ca6e6"/><path d="m93.265625 259.078125v-108.25l10.726563-10.726563h-30c-4.1875 4.1875-6.539063 6.539063-10.726563 10.726563v108.25c4.1875 4.191406 6.539063 6.539063 10.726563 10.730469h30c-4.1875-4.191406-6.539063-6.539063-10.726563-10.730469zm0 0" fill="#dcf0fb"/><path d="m94.230469 389.175781-79.910157 115.324219h20l79.910157-115.324219zm0 0" fill="#cad8ea"/><path d="m261.941406 389.175781 79.910156 115.324219h20l-79.910156-115.324219zm0 0" fill="#cad8ea"/><path d="m93.265625 330.601562c0-8.589843 4.21875-16.1875 10.691406-20.851562-4.222656-3.042969-9.398437-4.839844-15-4.839844-14.191406 0-25.691406 11.5-25.691406 25.691406 0 14.1875 11.5 25.6875 25.691406 25.6875 5.601563 0 10.777344-1.796874 15-4.839843-6.472656-4.664063-10.691406-12.261719-10.691406-20.847657zm0 0" fill="#e0c938"/><path d="m313.703125 330.601562c0-8.589843 4.21875-16.1875 10.691406-20.851562-4.222656-3.042969-9.398437-4.839844-15-4.839844-14.1875 0-25.691406 11.5-25.691406 25.691406 0 14.1875 11.5 25.6875 25.691406 25.6875 5.601563 0 10.777344-1.796874 15-4.839843-6.472656-4.664063-10.691406-12.261719-10.691406-20.847657zm0 0" fill="#e0c938"/><path d="m131.351562 83.070312h30v27.03125h-30zm0 0" fill="#b0c4e0"/><path d="m217.339844 338.101562h-11.332032v-15h11.332032zm-21.332032 0h-15v-15h15zm0 0" fill="#fff"/><path d="m344.328125 396.675781 34.589844-34.589843v-259.167969l-57.347657-57.347657h-54.132812c2.636719-4.488281 4.15625-9.710937 4.15625-15.285156 0-16.699218-13.585938-30.285156-30.285156-30.285156-16.699219 0-30.285156 13.585938-30.285156 30.285156 0 5.574219 1.519531 10.792969 4.15625 15.285156h-32.007813c2.636719-4.488281 4.15625-9.710937 4.15625-15.285156 0-16.699218-13.585937-30.285156-30.285156-30.285156s-30.285157 13.585938-30.285157 30.285156c0 5.574219 1.519532 10.792969 4.15625 15.285156h-54.136718l-57.34375 57.347657v259.167969l34.589844 34.589843zm-118.304687-366.390625c0-8.429687 6.855468-15.285156 15.285156-15.285156 8.429687 0 15.285156 6.855469 15.285156 15.285156 0 8.429688-6.855469 15.285156-15.285156 15.285156-8.429688 0-15.285156-6.855468-15.285156-15.285156zm-84.265626 0c0-8.429687 6.855469-15.285156 15.285157-15.285156 8.429687 0 15.285156 6.855469 15.285156 15.285156 0 8.429688-6.855469 15.285156-15.285156 15.285156-8.429688 0-15.285157-6.855468-15.285157-15.285156zm-107.324218 78.84375 48.558594-48.558594h232.367187l48.558594 48.558594v246.742188l-25.800781 25.804687h-277.882813l-25.800781-25.804687zm0 0"/><path d="m327.464844 277.308594 15.121094-15.121094v-114.464844l-15.121094-15.121094h-256.578125l-15.121094 15.121094v114.464844l15.121094 15.121094zm-256.699219-123.375 6.332031-6.332032h244.152344l6.335938 6.332032v102.039062l-6.335938 6.335938h-244.152344l-6.332031-6.335938zm0 0"/><path d="m88.953125 363.792969c18.304687 0 33.191406-14.890625 33.191406-33.191407 0-18.300781-14.886719-33.191406-33.191406-33.191406-18.300781 0-33.1875 14.890625-33.1875 33.191406 0 18.300782 14.886719 33.191407 33.1875 33.191407zm0-51.382813c10.03125 0 18.191406 8.160156 18.191406 18.191406s-8.160156 18.191407-18.191406 18.191407c-10.027344 0-18.1875-8.160157-18.1875-18.191407s8.160156-18.191406 18.1875-18.191406zm0 0"/><path d="m309.394531 297.410156c-18.300781 0-33.191406 14.890625-33.191406 33.191406 0 18.300782 14.890625 33.191407 33.191406 33.191407s33.191407-14.890625 33.191407-33.191407c0-18.300781-14.890626-33.191406-33.191407-33.191406zm0 51.382813c-10.03125 0-18.191406-8.160157-18.191406-18.191407s8.160156-18.191406 18.191406-18.191406 18.191407 8.160156 18.191407 18.191406-8.160157 18.191407-18.191407 18.191407zm0 0"/><path d="m274.5 75.570312h-150.648438v42.03125h150.648438zm-15 27.03125h-120.648438v-12.03125h120.648438zm0 0"/><path d="m176.667969 185.632812h15.007812v52.511719h15v-52.511719h15.003907v52.511719h15v-67.511719h-75.011719v67.511719h15zm0 0"/><path d="m337.921875 512h60.429687l-75.941406-109.597656-12.332031 8.542968 59.628906 86.054688h-23.929687l-65.546875-94.597656-12.328125 8.542968 11.113281 16.042969h-159.683594l11.117188-16.042969-12.332031-8.542968-65.546876 94.597656h-23.925781l59.625-86.054688-12.328125-8.542968-75.941406 109.597656h60.425781l17.113281-24.699219h243.269532zm-249.988281-39.699219 21.007812-30.3125h180.46875l21.003906 30.3125zm0 0"/></svg>